<svg data-name="Layer 1" xmlns="http://www.w3.org/2000/svg" viewBox="0 0 200 200" fill="#ffffff"><title>logo</title><path d="M200,100A100,100,0,1,1,100,0,100,100,0,0,1,200,100ZM100,25a75,75,0,1,0,75,75A75,75,0,0,0,100,25Z"/><path d="M50.34,49.26H66.06V87.6H90.59v12.53H50.34Z"/><path d="M103.72,74.73q0-12.47,6.94-19.4T130,48.39q12.7,0,19.57,6.82t6.87,19.1q0,8.91-3,14.62a21.4,21.4,0,0,1-8.67,8.89Q139.07,101,130.62,101q-8.61,0-14.25-2.74a21.43,21.43,0,0,1-9.14-8.67Q103.72,83.64,103.72,74.73Zm15.72.06q0,7.71,2.86,11.07a10.84,10.84,0,0,0,15.64.07q2.77-3.29,2.77-11.83,0-7.18-2.9-10.5A9.92,9.92,0,0,0,130,60.29a9.54,9.54,0,0,0-7.64,3.37Q119.44,67,119.44,74.79Z"/><path d="M72.08,137.25V126.66H96.37v21.69A49.47,49.47,0,0,1,84,154.82a41.68,41.68,0,0,1-12.72,1.72q-9,0-14.76-3.09a21.21,21.21,0,0,1-8.85-9.19,30.28,30.28,0,0,1-3.14-14A29.3,29.3,0,0,1,48,115.75a22.27,22.27,0,0,1,10.06-9.35q5.17-2.46,13.91-2.46,8.44,0,12.62,1.52a16.45,16.45,0,0,1,6.94,4.74,20.93,20.93,0,0,1,4.14,8.14L80.51,121a8.14,8.14,0,0,0-3.17-4.4,9.93,9.93,0,0,0-5.71-1.53,10.29,10.29,0,0,0-8.24,3.59q-3.07,3.6-3.07,11.36,0,8.26,3.1,11.8t8.66,3.54a16.43,16.43,0,0,0,5-.76,27.47,27.47,0,0,0,5.48-2.6v-4.79Z"/><path d="M103.72,130.27q0-12.45,6.94-19.39T130,103.94q12.7,0,19.57,6.81t6.87,19.11q0,8.91-3,14.62a21.4,21.4,0,0,1-8.67,8.89q-5.69,3.16-14.14,3.17-8.61,0-14.25-2.74a21.46,21.46,0,0,1-9.14-8.68Q103.72,139.2,103.72,130.27Zm15.72.07q0,7.71,2.87,11.07a10.82,10.82,0,0,0,15.63.07q2.77-3.3,2.77-11.83,0-7.19-2.89-10.5a9.91,9.91,0,0,0-7.86-3.31,9.57,9.57,0,0,0-7.64,3.36Q119.44,122.58,119.44,130.34Z"/></svg>