<?xml version="1.0" standalone="no"?>
<!DOCTYPE svg PUBLIC "-//W3C//DTD SVG 20010904//EN"
 "http://www.w3.org/TR/2001/REC-SVG-20010904/DTD/svg10.dtd">
<svg version="1.0" xmlns="http://www.w3.org/2000/svg"
 width="834.000000pt" height="834.000000pt" viewBox="0 0 834.000000 834.000000"
 preserveAspectRatio="xMidYMid meet">
<metadata>
Created by potrace 1.11, written by Peter Selinger 2001-2013
</metadata>
<g transform="translate(0.000000,834.000000) scale(0.100000,-0.100000)"
fill="#000000" stroke="none">
<path d="M2850 7709 c-28 -16 -64 -69 -179 -262 -79 -133 -258 -433 -398 -667
-140 -234 -260 -434 -266 -445 -6 -11 -21 -36 -33 -55 -25 -40 -167 -280 -194
-325 -14 -25 -357 -599 -446 -748 -16 -27 -36 -61 -45 -76 -119 -200 -527
-881 -574 -961 -217 -361 -490 -818 -499 -835 -16 -28 -108 -181 -128 -213
-66 -105 -91 -160 -84 -187 9 -36 31 -33 228 31 95 31 178 57 183 58 6 2 17 6
25 9 8 3 116 38 240 77 124 39 243 78 265 85 22 8 175 57 340 110 165 53 388
125 495 160 451 146 586 189 598 191 55 10 193 100 279 182 132 127 174 200
273 482 39 113 78 221 85 240 16 39 89 242 250 695 58 165 112 316 120 335 7
19 27 73 44 120 39 111 176 491 286 800 49 135 95 255 104 267 28 39 62 43
345 43 356 0 320 21 415 -245 68 -190 317 -887 401 -1120 37 -104 145 -406
240 -670 94 -264 179 -502 190 -530 10 -27 30 -82 45 -121 34 -95 101 -193
189 -279 139 -137 186 -162 476 -255 357 -114 493 -158 670 -215 91 -29 266
-86 390 -125 124 -39 245 -79 270 -87 25 -8 86 -28 135 -43 50 -15 225 -72
389 -125 165 -53 311 -95 325 -93 40 5 40 52 0 119 -17 30 -40 68 -49 84 -17
30 -271 456 -289 485 -19 31 -136 226 -147 245 -14 26 -663 1109 -842 1407
-76 125 -141 235 -147 245 -5 10 -20 34 -31 53 -37 61 -546 914 -564 945 -10
17 -96 161 -192 320 -95 160 -189 316 -208 348 -19 32 -40 66 -45 75 -6 10
-37 62 -70 117 -33 55 -64 108 -70 117 -5 9 -26 43 -45 75 -19 32 -41 70 -50
84 -29 49 -46 68 -76 84 -26 13 -180 15 -1309 15 -1273 0 -1280 -1 -1315 -21z"/>
<path d="M3447 4633 c-6 -19 -76 -216 -122 -343 -15 -41 -52 -145 -82 -230
-90 -253 -157 -365 -312 -519 -192 -193 -308 -261 -606 -356 -251 -79 -455
-145 -485 -155 -14 -5 -140 -45 -280 -90 -140 -45 -392 -126 -560 -180 -339
-109 -818 -263 -895 -287 -86 -27 -104 -56 -74 -120 10 -21 90 -150 178 -288
88 -137 188 -295 222 -350 34 -55 83 -131 107 -170 25 -38 59 -92 77 -120 77
-122 95 -151 102 -161 5 -5 13 -19 19 -30 42 -72 160 -253 177 -272 49 -53 26
-69 829 561 409 320 775 607 813 637 86 66 194 158 218 185 10 11 35 38 56 60
191 204 401 610 445 860 3 17 8 39 10 50 2 11 7 45 11 75 4 30 9 62 10 70 1 8
6 40 11 70 4 30 8 57 9 60 1 3 5 30 9 60 4 30 16 109 26 175 11 66 22 143 25
170 4 28 8 57 10 65 2 8 7 35 10 60 8 55 14 97 20 130 2 14 7 45 10 70 3 25 8
52 10 60 2 8 7 35 10 60 2 25 7 54 9 65 2 11 7 48 11 83 5 51 4 62 -8 62 -8 0
-17 -8 -20 -17z"/>
<path d="M3939 4643 c0 -5 -2 -15 -3 -23 -2 -8 -7 -40 -11 -70 -4 -30 -9 -64
-11 -75 -2 -11 -6 -42 -9 -69 -4 -27 -9 -58 -11 -70 -2 -12 -7 -39 -10 -61 -2
-22 -7 -51 -9 -65 -8 -48 -24 -155 -30 -200 -3 -25 -8 -56 -10 -70 -6 -32 -12
-74 -20 -130 -3 -25 -9 -58 -11 -75 -3 -16 -7 -39 -8 -50 -9 -64 -19 -133 -22
-150 -2 -10 -6 -37 -9 -60 -9 -57 -15 -96 -20 -125 -2 -14 -7 -45 -10 -69 -40
-289 -246 -726 -485 -1026 -111 -139 -227 -245 -535 -488 -272 -214 -798 -629
-835 -660 -8 -7 -89 -70 -180 -142 -91 -71 -167 -132 -170 -135 -3 -3 -34 -28
-70 -55 -138 -106 -165 -141 -121 -165 13 -7 436 -10 1299 -10 l1279 0 24 26
24 26 0 1999 c0 1596 -2 1999 -12 1999 -7 0 -13 -3 -14 -7z"/>
<path d="M4373 2644 l2 -2006 24 -19 c23 -18 58 -19 1301 -19 703 0 1285 3
1294 6 30 11 19 59 -20 90 -20 16 -44 36 -54 44 -10 8 -33 27 -51 41 -19 15
-106 84 -194 153 -88 70 -173 138 -190 151 -60 47 -500 396 -515 408 -8 7
-100 80 -205 162 -104 83 -197 155 -205 162 -8 7 -62 49 -120 95 -58 45 -143
118 -188 163 -308 297 -580 797 -647 1189 -9 50 -18 102 -20 116 -3 14 -10 63
-15 109 -6 47 -13 87 -15 90 -2 4 -6 31 -9 61 -3 30 -8 64 -10 75 -2 11 -7 42
-10 68 -4 27 -9 56 -11 65 -1 10 -6 40 -9 67 -4 28 -11 77 -16 110 -5 33 -12
78 -15 100 -4 22 -8 51 -10 65 -4 23 -11 70 -20 130 -14 92 -36 239 -39 260
-3 14 -5 35 -5 48 -1 12 -7 22 -16 22 -13 0 -14 -242 -12 -2006z"/>
<path d="M4759 4643 c-2 -14 10 -119 16 -143 2 -8 7 -35 10 -60 8 -55 14 -97
20 -130 2 -14 7 -45 10 -70 3 -25 12 -85 20 -135 8 -49 16 -108 20 -130 3 -23
7 -50 9 -60 2 -11 7 -42 11 -70 3 -27 15 -108 26 -180 11 -71 22 -146 25 -165
10 -66 25 -165 30 -195 51 -307 250 -685 499 -950 44 -48 167 -149 361 -300
71 -55 136 -105 144 -112 8 -7 135 -106 281 -220 146 -115 281 -220 300 -235
124 -99 631 -496 663 -519 24 -18 51 -29 72 -29 38 0 48 12 127 137 94 150
275 437 372 588 28 44 140 220 248 391 209 330 222 358 175 388 -20 13 -105
45 -133 50 -5 1 -118 37 -250 80 -564 182 -932 300 -1589 511 -523 168 -597
197 -719 282 -176 122 -341 307 -425 477 -23 44 -91 223 -152 396 -125 355
-144 403 -159 408 -6 2 -12 0 -12 -5z"/>
</g>
</svg>
